<svg xmlns="http://www.w3.org/2000/svg" version="1.1" xmlns:xlink="http://www.w3.org/1999/xlink" xmlns:svgjs="http://svgjs.dev/svgjs" width="128" height="128" viewBox="0 0 128 128"><g transform="matrix(0.4951923076923077,0,0,0.4951923076923077,32.054101201563974,12.392680321334907)"><svg viewBox="0 0 59 96" data-background-color="#97d5ee" preserveAspectRatio="xMidYMid meet" height="208" width="128" xmlns="http://www.w3.org/2000/svg" xmlns:xlink="http://www.w3.org/1999/xlink"><g id="tight-bounds" transform="matrix(1,0,0,1,0.23969312137309373,0.10002610827038438)"><svg viewBox="0 0 58.52061333530954 95.481" height="95.481" width="58.52061333530954"><g><svg viewBox="0 0 58.52061333530954 95.481" height="95.481" width="58.52061333530954"><g><svg viewBox="0 0 58.52061333530954 95.481" height="95.481" width="58.52061333530954"><g id="textblocktransform"><svg viewBox="0 0 58.52061333530954 95.481" height="95.481" width="58.52061333530954" id="textblock"><g><svg viewBox="0 0 58.52061333530954 95.481" height="95.481" width="58.52061333530954"><g><svg viewBox="0 0 58.52061333530954 95.481" height="95.481" width="58.52061333530954"><g><svg xmlns="http://www.w3.org/2000/svg" xmlns:xlink="http://www.w3.org/1999/xlink" version="1.1" x="0" y="0" viewBox="12.99999971942908 1 38.000000280570916 62" style="enable-background:new 0 0 64 64;" xml:space="preserve" height="95.481" width="58.52061333530954" class="icon-icon-0" data-fill-palette-color="accent" id="icon-0"><g fill="#db3e25" data-fill-palette-color="accent"><path d="M33.707 30.293A1 1 0 0 0 32.293 30.293L31 31.586 29.707 30.293A1 1 0 0 0 28.293 30.293L27 31.586 25.707 30.293A1 1 0 0 0 24.293 30.293L22.293 32.293A1 1 0 0 0 22 33V41A1 1 0 0 0 23 42H35A1 1 0 0 0 36 41V33A1 1 0 0 0 35.707 32.293zM26 40H24V33.414L25 32.414 26 33.414zM28 40V33.414L29 32.414 30 33.414V40zM34 40H32V33.414L33 32.414 34 33.414z" fill="#db3e25" data-fill-palette-color="accent"></path><rect x="45" y="36" width="2" height="3" fill="#db3e25" data-fill-palette-color="accent"></rect><rect x="45" y="41" width="2" height="3" fill="#db3e25" data-fill-palette-color="accent"></rect><rect x="45" y="46" width="2" height="3" fill="#db3e25" data-fill-palette-color="accent"></rect><rect x="45" y="51" width="2" height="3" fill="#db3e25" data-fill-palette-color="accent"></rect><rect x="45" y="56" width="2" height="3" fill="#db3e25" data-fill-palette-color="accent"></rect><path d="M46.97 6.758A0.999 0.999 0 0 0 45.03 6.758L42.915 15.219 41.965 11.737A1 1 0 0 0 40.035 11.737L37.236 22H36.847L34 4.918V1H32V4H26V1H24V4.918L21.153 22H20.764L17.965 11.737A1 1 0 0 0 16.035 11.737L13.035 22.737A1 1 0 0 0 13 23V27A1 1 0 0 0 14 28H15V62A1 1 0 0 0 16 63H22A1 1 0 0 0 23 62V59.616A10.54 10.54 0 0 1 29 50.097C32.659 51.844 35 55.535 35 59.616V62A1 1 0 0 0 36 63H50A1 1 0 0 0 51 62V23A1 1 0 0 0 50.97 22.758zM46 11.123L48.719 22H44.763L43.989 19.163zM15 26V24H43V26zM41 15.801L42.691 22H39.309zM25.847 6H32.153L34.82 22H23.18zM17 15.801L18.691 22H15.309zM29.394 48.081A1 1 0 0 0 28.606 48.081 12.54 12.54 0 0 0 21 59.616V61H17V28H41V61H37V59.616C37 54.589 34.015 50.062 29.394 48.081M43 61V28H44A1 1 0 0 0 45 27V24H49V61z" fill="#db3e25" data-fill-palette-color="accent"></path><rect x="45" y="31" width="2" height="3" fill="#db3e25" data-fill-palette-color="accent"></rect></g></svg></g></svg></g></svg></g></svg></g></svg></g></svg></g><defs></defs></svg><rect width="58.52061333530954" height="95.481" fill="none" stroke="none" visibility="hidden"></rect></g></svg></g></svg>